# xmcd
#
# Track frame offsets:
#	150
#	14255
#	33514
#	50877
#	75984
#	89542
#	107327
#	138243
#	166015
#	184327
#	201281
#	217606
#	233599
#	246371
#	262413
#	279280
#	296765
#	310418
#
# Disc length: 4360 seconds
#
# Revision: 0
# Processed by: cddbd v1.5.2PL0 Copyright (c) Steve Scherf et al.
# Submitted via: audiograbber 1.83.01
#
DISCID=fc110612
DTITLE=Various Artist - New Country Giants Vol. 2
DYEAR=2004
DGENRE=Country
TTITLE0=Lorrie Morgan and Jon Randall - By My Side
TTITLE1=George Straitt and Alan Jackson - Murder On The Music Row
TTITLE2=Vine Gill and Patty Loveless - My Kind Of Woman_My Kind Of Man
TTITLE3=Kimmie Rhodes and Willie Nelson - I Never Heard You Say
TTITLE4=Tammy Wynette and George Jones - Golden Ring
TTITLE5=Dolly Parton and John Poper - Today I Started Loving You Again
TTITLE6=Willie Nelson and Sinead O'Connor - Don't Give Up
TTITLE7=George Jones and B.B. King - Patches
TTITLE8=Travis Tritt and Lori White - Helping Me Get Over You
TTITLE9=Trisha Yearwood and George Jones - Bartender Blues
TTITLE10=Waylon Jennings and Willie Nelson - Rocks From A Rolling Stone
TTITLE11=Nitty Gritty Dirt Band and Roger Mcguinn and Chris Hillman - You Ain't Goi
TTITLE11=ng Nowhere
TTITLE12=Suzie Boguss, Allison Krauss, Katty Mathea With Crosby, Stills and Nash 
TTITLE12=/ Teach Your Children
TTITLE13=Wylco and Syd Straw - The T.B. Is Whipping Me
TTITLE14=Ray Charles and Wille Nelson - Seven Spanish Angels
TTITLE15=Van Morrison and Chieftains - I Can't Stop Loving You
TTITLE16=Lucy J. Dalton and George Jones - That' Good - That's Bad
TTITLE17=Trisha Yearwood and Aaron Neville - I Fall To Pieces
EXTD=
EXTT0=
EXTT1=
EXTT2=
EXTT3=
EXTT4=
EXTT5=
EXTT6=
EXTT7=
EXTT8=
EXTT9=
EXTT10=
EXTT11=
EXTT12=
EXTT13=
EXTT14=
EXTT15=
EXTT16=
EXTT17=
PLAYORDER=
